<svg width="24" height="24" viewBox="0 0 24 24" fill="none" xmlns="http://www.w3.org/2000/svg">
<path d="M23.0757 13.8151H20.2348C20.0133 14.6621 19.6614 15.4487 19.1792 16.1505L21.1861 18.0141L18.4495 20.5552L16.4426 18.6917C15.6867 19.1273 14.8397 19.4541 13.9535 19.6477V22.2857H10.0441V19.6477C9.15791 19.4541 8.31085 19.1273 7.55501 18.6917L5.54813 20.5552L2.78541 17.9899L4.79229 16.1263C4.32315 15.4245 3.97129 14.6379 3.76279 13.8151H0.921875V10.2211H3.74976C3.95826 9.37407 4.32315 8.58751 4.79229 7.87356L2.78541 6.01003L5.52207 3.46886L7.52895 5.33238C8.28479 4.88465 9.14488 4.55793 10.0441 4.35222V1.71423H13.9535V4.35222C14.8397 4.54583 15.6867 4.87255 16.4426 5.30818L18.4495 3.44465L21.2122 6.01003L19.2053 7.87356C19.6744 8.58751 20.0393 9.37407 20.2478 10.2211H23.0757V13.8151ZM11.9989 15.6302C14.162 15.6302 15.9083 14.0087 15.9083 11.9999C15.9083 9.99121 14.162 8.3697 11.9989 8.3697C9.83556 8.3697 8.08931 9.99121 8.08931 11.9999C8.08931 14.0087 9.83556 15.6302 11.9989 15.6302Z" fill="#EF8C1A"/>
</svg>
