<svg width="24" height="24" viewBox="0 0 24 24" fill="none" xmlns="http://www.w3.org/2000/svg">
<path d="M12 21.013C10.0509 21.013 8.24636 20.3942 6.77195 19.3425L12.0022 14.1122L12.4709 12.0022L12.0022 9.88804L4.6595 17.2308C3.6066 15.7558 2.98698 13.9503 2.98698 12C2.98698 7.02226 7.02226 2.98702 12 2.98702H12.0022L12.4708 1.36137L12.0022 4.68663e-05C12.0014 4.68663e-05 12.0007 0 12 0C5.37257 0 0 5.37257 0 12C0 18.6274 5.37257 24 12 24C12.0007 24 12.0014 23.9999 12.0022 23.9999L12.4708 22.4511L12.0022 21.0129C12.0015 21.013 12.0007 21.013 12 21.013Z" fill="#FF6C6C"/>
<path d="M23.9978 12C23.9978 5.37331 18.6264 0.00121852 12 0V2.98698C13.9495 2.98745 15.7542 3.60697 17.2285 4.65945L12 9.88804V14.1122L19.3403 6.77195C20.392 8.24636 21.0108 10.0509 21.0108 12C21.0108 16.977 16.9767 21.0118 12 21.013V24C18.6264 23.9987 23.9978 18.6266 23.9978 12Z" fill="#C83C50"/>
</svg>
