<?xml version="1.0" encoding="utf-8"?>
<svg viewBox="49.269 -1.19 127.75 127.9" xmlns="http://www.w3.org/2000/svg">
  <path d="M 121.128 43.575 L 165.044 43.575 L 121.128 8.402 L 121.128 43.575 Z M 65.238 -1.19 L 129.113 -1.19 L 177.019 37.18 L 177.019 113.92 C 177.019 117.312 175.337 120.565 172.342 122.964 C 169.347 125.363 165.286 126.71 161.05 126.71 L 65.238 126.71 C 61.002 126.71 56.941 125.363 53.946 122.964 C 50.951 120.565 49.269 117.312 49.269 113.92 L 49.269 11.6 C 49.269 4.502 56.374 -1.19 65.238 -1.19 Z M 137.098 101.13 L 137.098 88.34 L 65.238 88.34 L 65.238 101.13 L 137.098 101.13 Z M 161.05 75.55 L 161.05 62.76 L 65.238 62.76 L 65.238 75.55 L 161.05 75.55 Z" style="fill: rgb(241, 138, 48);"/>
</svg>