<svg width="24" height="24" viewBox="0 0 24 24" fill="none" xmlns="http://www.w3.org/2000/svg">
<g clip-path="url(#clip0_1026_65575)">
<path d="M12.0031 1.20001C6.00312 1.20001 1.20312 6.00001 1.20312 12C1.20312 18 6.00312 22.8 12.0031 22.8C18.0031 22.8 22.8031 18 22.8031 12C22.8031 6.00001 18.0031 1.20001 12.0031 1.20001ZM12.0031 20.4C7.32312 20.4 3.60312 16.68 3.60312 12C3.60312 7.32001 7.32312 3.60001 12.0031 3.60001C16.6831 3.60001 20.4031 7.32001 20.4031 12C20.4031 16.68 16.6831 20.4 12.0031 20.4ZM7.20312 10.8V13.2H16.8031V10.8H7.20312Z" fill="#FF0000"/>
</g>
<defs>
<clipPath id="clip0_1026_65575">
<rect width="24" height="24" fill="white"/>
</clipPath>
</defs>
</svg>
