<svg width="24" height="24" viewBox="0 0 24 24" fill="none" xmlns="http://www.w3.org/2000/svg">
<path d="M21.2325 4.61541H16.6171C16.6172 2.0663 14.5508 0 12.0018 0C9.45272 0 7.38637 2.0663 7.38637 4.61541H2.77102C2.13361 4.61541 1.61719 5.13188 1.61719 5.76923C1.61719 6.40659 2.13366 6.92306 2.77102 6.92306H3.23255V21C3.23531 22.656 4.57655 23.9972 6.23255 24H17.771C19.427 23.9972 20.7682 22.656 20.771 21V6.92306H21.2325C21.87 6.92306 22.3864 6.40659 22.3864 5.76923C22.3864 5.13188 21.87 4.61541 21.2325 4.61541ZM12.0018 2.3077C13.2761 2.3077 14.3095 3.34111 14.3095 4.61541H9.69408C9.69408 3.34106 10.7275 2.3077 12.0018 2.3077ZM18.4633 21C18.4633 21.3822 18.1531 21.6923 17.771 21.6923H6.23255C5.85037 21.6923 5.54025 21.3821 5.54025 21V6.92306H18.4633V21Z" fill="#FF485A"/>
<path d="M9.46242 17.7692C8.82502 17.7692 8.30859 17.2528 8.30859 16.6154V12C8.30859 11.3626 8.82506 10.8462 9.46242 10.8462C10.0998 10.8462 10.6163 11.3627 10.6163 12V16.6154C10.6163 17.2528 10.0998 17.7692 9.46242 17.7692Z" fill="#FFBBC0"/>
<path d="M14.5405 17.7692C13.9031 17.7692 13.3867 17.2528 13.3867 16.6154V12C13.3867 11.3626 13.9032 10.8462 14.5405 10.8462C15.178 10.8462 15.6944 11.3627 15.6944 12V16.6154C15.6944 17.2528 15.1779 17.7692 14.5405 17.7692Z" fill="#FFBBC0"/>
</svg>
