<svg width="16" height="16" viewBox="0 0 16 16" fill="none" xmlns="http://www.w3.org/2000/svg">
<path d="M7.20078 12H8.80078V7.20005H7.20078V12ZM8.00078 4.00005C7.60078 4.00005 7.20078 4.40005 7.20078 4.80005C7.20078 5.20005 7.60078 5.60005 8.00078 5.60005C8.40078 5.60005 8.80078 5.20005 8.80078 4.80005C8.80078 4.40005 8.40078 4.00005 8.00078 4.00005ZM8.00078 0.800049C4.00078 0.800049 0.800781 4.00005 0.800781 8.00005C0.800781 12 4.00078 15.2 8.00078 15.2C12.0008 15.2 15.2008 12 15.2008 8.00005C15.2008 4.00005 12.0008 0.800049 8.00078 0.800049ZM8.00078 13.6C4.88078 13.6 2.40078 11.12 2.40078 8.00005C2.40078 4.88005 4.88078 2.40005 8.00078 2.40005C11.1208 2.40005 13.6008 4.88005 13.6008 8.00005C13.6008 11.12 11.1208 13.6 8.00078 13.6Z" fill="black"/>
</svg>
